<svg xmlns="http://www.w3.org/2000/svg" fill="none" viewBox="0 0 111 49" height="49" width="111">
<path fill="#0DBA4B" d="M24.0354 0C10.7622 0 0 10.7622 0 24.0354C0 37.3086 10.7622 48.0709 24.0354 48.0709C37.3086 48.0709 48.0709 37.3086 48.0709 24.0354C48.0709 10.7622 37.3086 0 24.0354 0Z"></path>
<path fill="white" d="M31.9891 15.5869V23.5661C31.9891 23.5661 31.9891 24.2006 31.9891 24.5358C31.9891 25.8046 31.3634 26.9239 30.3984 27.6305C29.7356 28.1154 28.9084 28.4042 28.0123 28.4042H24.0886C24.0727 28.4042 24.0515 28.4042 24.0356 28.4042C24.0197 28.4042 24.0038 28.4042 23.9826 28.4042C21.8086 28.43 20.0588 30.1527 20.0588 32.2777C20.0588 34.4183 21.8404 36.1513 24.0356 36.1513C26.2308 36.1513 28.0123 34.4183 28.0123 32.2777C28.0123 31.2049 28.9031 30.3384 30.0007 30.3384C31.0824 30.3384 31.9626 31.1791 31.9891 32.2262C31.9891 32.2416 31.9891 32.2571 31.9891 32.2726V32.2829C31.9891 35.1507 30.3878 37.6522 28.0123 38.9933C26.8405 39.6535 25.4831 40.03 24.0356 40.03C22.588 40.03 21.2306 39.6535 20.0588 38.9933C17.7205 37.6729 16.1351 35.2332 16.082 32.4273V32.1282C16.1085 30.7717 16.4956 29.5028 17.1478 28.399C17.8477 27.2282 18.8499 26.2482 20.0588 25.5674C21.2306 24.9072 22.588 24.5307 24.0356 24.5307H27.1905C27.6465 24.5307 28.0123 24.1748 28.0123 23.7312V15.9428C28.0123 15.8964 28.0123 15.8429 28.0123 15.7964C28.0123 15.75 28.0145 15.7251 28.0123 15.6643C27.9381 13.5857 26.1883 11.9197 24.0409 11.9197H24.0356C21.8404 11.9197 20.0588 13.6579 20.0588 15.7984C20.0588 17.9389 21.8404 19.6771 24.0356 19.6771H24.0409C24.9953 19.6771 25.796 20.327 25.9921 21.1935C26.024 21.3276 26.0399 21.4721 26.0399 21.6165C26.0399 22.648 25.2127 23.4888 24.1628 23.5507C24.1204 23.5507 24.078 23.5558 24.0409 23.5558H24.0356C24.0197 23.5558 24.0038 23.5558 23.9879 23.5558C22.5562 23.5455 21.22 23.169 20.0641 22.5191C17.6886 21.1781 16.0873 18.6713 16.0873 15.7984C16.082 12.9307 17.6833 10.4239 20.0588 9.0829C21.2306 8.41754 22.588 8.04102 24.0356 8.04102H24.0409C25.4884 8.04102 26.8458 8.41754 28.0123 9.07774C30.3295 10.3827 31.9096 12.8017 31.9891 15.5869Z"></path>
<path fill="#2A2A2A" d="M64.2929 31.9891C66.6594 31.9891 68.5525 31.1895 69.9048 30.301C70.5584 29.9011 70.8739 29.3458 70.8739 28.5684V24.4146C70.8739 23.6372 70.2654 23.0375 69.4766 23.0375H65.0817C64.4056 23.0375 63.8422 23.5706 63.8422 24.2369C63.8422 24.9033 64.4056 25.4142 65.0817 25.4142H68.1919V28.324C67.2228 29.0348 65.8706 29.5013 64.3831 29.5013C61.1602 29.5013 59.0192 27.1468 59.0192 23.9482V23.9037C59.0192 20.9273 61.2278 18.4172 64.1352 18.4172C65.848 18.4172 66.9524 18.9059 67.9666 19.6389C68.1919 19.7944 68.4624 19.9499 68.823 19.9499C69.5893 19.9499 70.1978 19.328 70.1978 18.5949C70.1978 18.0618 69.9048 17.6842 69.6343 17.4843C68.1919 16.4625 66.6143 15.9072 64.2479 15.9072C59.4924 15.9072 56.1118 19.5945 56.1118 23.9482V23.9926C56.1118 28.524 59.3572 31.9891 64.2929 31.9891Z"></path>
<path fill="#2A2A2A" d="M80.9522 31.9669C85.0766 31.9669 87.736 29.6346 87.736 24.9922V17.4177C87.736 16.6625 87.1275 16.0627 86.3612 16.0627C85.5724 16.0627 84.9639 16.6625 84.9639 17.4177V25.1254C84.9639 27.9909 83.4539 29.4347 80.9973 29.4347C78.5182 29.4347 77.0081 27.902 77.0081 25.0144V17.4177C77.0081 16.6625 76.3996 16.0627 75.6334 16.0627C74.8445 16.0627 74.236 16.6625 74.236 17.4177V25.1254C74.236 29.6346 76.8504 31.9669 80.9522 31.9669Z"></path>
<path fill="#2A2A2A" d="M97.6939 31.9447H97.8516C98.6405 31.9447 99.1588 31.5227 99.4518 30.8341L104.996 17.9508C105.064 17.7953 105.131 17.5732 105.131 17.3733C105.131 16.6402 104.523 16.0627 103.756 16.0627C103.103 16.0627 102.607 16.4848 102.427 16.9512L97.8066 28.2574L93.254 17.0401C93.0286 16.4625 92.5553 16.0627 91.8341 16.0627C91.0453 16.0627 90.4368 16.6625 90.4368 17.3955C90.4368 17.6398 90.5044 17.8397 90.5946 18.0396L96.1163 30.8341C96.4092 31.5227 96.9276 31.9447 97.6939 31.9447Z"></path>
<path fill="#2A2A2A" d="M108.228 30.4787C108.228 31.2339 108.836 31.8336 109.625 31.8336C110.391 31.8336 111 31.2339 111 30.4787V17.4177C111 16.6625 110.391 16.0627 109.625 16.0627C108.836 16.0627 108.228 16.6625 108.228 17.4177V30.4787Z"></path>
</svg>
